<?xml version="1.0" encoding="utf-8"?><svg width="100%" height="100%" version="1.1" viewBox="-3 -3 438 438" xmlns:xlink="http://www.w3.org/1999/xlink" xmlns="http://www.w3.org/2000/svg"><defs /><g id="layer1" /><g id="layer2" /><g id="layer3"><rect x="0" y="0" width="432" height="432" opacity="1" fill-opacity="0" /><g transform="rotate(342 261 311.22)"><path d="M145.4444 297 L373 297 L373 325.44 L145.4444 325.44 Z " opacity="1" stroke="#B2B2B2" stroke-opacity="1" stroke-width="1" stroke-linecap="butt" stroke-linejoin="miter" stroke-dasharray="none" fill="#FFFFFF" fill-opacity="1" /><path d="M383.6667 297 L405 297 L405 325.44 L383.6667 325.44 Z " opacity="1" stroke="#B2B2B2" stroke-opacity="1" stroke-width="1" stroke-linecap="butt" stroke-linejoin="miter" stroke-dasharray="none" fill="#FFFFFF" fill-opacity="1" /><path d="M380.1111 297 L383.6667 297 L383.6667 325.44 L380.1111 325.44 Z " opacity="1" stroke="#B2B2B2" stroke-opacity="1" stroke-width="1" stroke-linecap="butt" stroke-linejoin="miter" stroke-dasharray="none" fill="#E5E5E5" fill-opacity="1" /><path d="M376.5556 297 L380.1111 297 L380.1111 325.44 L376.5556 325.44 Z " opacity="1" stroke="#B2B2B2" stroke-opacity="1" stroke-width="1" stroke-linecap="butt" stroke-linejoin="miter" stroke-dasharray="none" fill="#E5E5E5" fill-opacity="1" /><path d="M373 297 L376.5556 297 L376.5556 325.44 L373 325.44 Z " opacity="1" stroke="#B2B2B2" stroke-opacity="1" stroke-width="1" stroke-linecap="butt" stroke-linejoin="miter" stroke-dasharray="none" fill="#E5E5E5" fill-opacity="1" /><path d="M145.4444 297 L117 311.22 L145.4444 325.44 Z " opacity="1" stroke="#B2B2B2" stroke-opacity="1" stroke-width="1" stroke-linecap="butt" stroke-linejoin="miter" stroke-dasharray="none" fill="#FFFFFF" fill-opacity="1" /><path d="M117 311.22 L127.6667 305.8875 L125.8889 307.665 L127.6667 309.4425 L125.8889 311.22 L127.6667 312.9975 L125.8889 314.775 L127.6667 316.5525 Z " opacity="1" stroke="#B2B2B2" stroke-opacity="1" stroke-width="1" stroke-linecap="butt" stroke-linejoin="miter" stroke-dasharray="none" fill="#B2B2B2" fill-opacity="1" /></g><text x="85.184" y="242.1998" font-size="144" fill="#999999" fill-opacity="1" font-family="Hiragino Sans" font-weight="normal" font-style="normal">Log</text></g></svg>